<svg height="512pt" viewBox="0 0 512.01725 512" width="512pt" xmlns="http://www.w3.org/2000/svg"><path d="m469.332031 128.230469v-102.65625c-.011719-9.75-5.5625-18.644531-14.308593-22.941407-8.75-4.300781-19.183594-3.253906-26.90625 2.691407l-32.871094 25.273437c-19.726563 15.144532-42.394532 26.011719-66.558594 31.90625-5.230469-8.230468-14.703125-12.75-24.394531-11.640625-9.6875 1.113281-17.890625 7.660157-21.121094 16.863281h-172.238281c-46.695313-.132812-88.421875 29.136719-104.191406 73.089844-.171876.386719-.316407.785156-.425782 1.195313-4.128906 11.78125-6.2656248 24.167969-6.316406 36.648437 0 1.9375.0859375 3.882813.179688 5.710938.101562 1.976562.210937 3.964844.460937 5.554687v.117188c.1875 1.9375.402344 3.875.699219 5.308593.296875 2.152344.691406 4.265626 1.203125 6.460938l1.058593 4.265625c3.195313 11.855469 8.390626 23.078125 15.359376 33.1875.46875.742187.980468 1.449219 1.484374 2.132813l.691407.957031c6.835937 9.289062 15.042969 17.488281 24.347656 24.308593.851563.675782 1.746094 1.347657 2.6875 2.007813 3.910156 2.722656 7.988281 5.199219 12.210937 7.414063 1.363282.726562 2.78125 1.3125 4.164063 1.988281 2.0625.988281 4.078125 2.082031 6.203125 2.953125l21.761719 158.078125c6.175781 41.738281 42.109375 72.578125 84.300781 72.355469h13.820312c12.414063-.007813 24.207032-5.421876 32.308594-14.824219 8.097656-9.40625 11.699219-21.871094 9.863282-34.148438l-13.675782-104.628906h13.652344c12.539062 0 24.441406-5.515625 32.546875-15.082031s11.59375-22.210938 9.539063-34.582032l-3.082032-18.601562h11.386719c3.21875 9.222656 11.433594 15.785156 21.136719 16.898438 9.703125 1.113281 19.1875-3.421876 24.414062-11.675782 24.160156 5.902344 46.832032 16.773438 66.558594 31.921875l32.828125 25.25c7.722656 5.953125 18.15625 7 26.90625 2.703125 8.753906-4.296875 14.304687-13.191406 14.316406-22.941406v-102.648438c24.636719-4.128906 42.683594-25.457031 42.683594-50.4375 0-24.980468-18.046875-46.304687-42.683594-50.433593zm-187.730469-43.4375v187.734375h-167.679687c-3.855469-.03125-7.703125-.292969-11.523437-.792969v-152.808594h102.402343c4.710938 0 8.53125-3.820312 8.53125-8.53125 0-4.714843-3.820312-8.535156-8.53125-8.535156h-102.402343v-16.648437c2.824218-.253907 5.667968-.417969 8.535156-.417969zm-246.53125 147.628906-.851562-1.144531c-.289062-.390625-.589844-.792969-1.015625-1.460938-5.914063-8.539062-10.332031-18.023437-13.066406-28.046875l-.996094-3.992187c-.359375-1.539063-.648437-3.140625-.921875-5.046875-.222656-1.5-.445312-3.011719-.648438-4.914063 0-.203125 0-.417968-.050781-.621094h16.613281c4.714844 0 8.535157-3.820312 8.535157-8.535156 0-4.710937-3.820313-8.53125-8.535157-8.53125h-16.640624c.535156-5.773437 1.59375-11.488281 3.167968-17.066406h30.539063c4.714843 0 8.535156-3.820312 8.535156-8.535156 0-4.710938-3.820313-8.53125-8.535156-8.53125h-23.890625c11.800781-23.316406 32.855468-40.597656 58.023437-47.625v179.660156c-1.3125-.410156-2.636719-.761719-3.941406-1.230469l-.433594-.136719c-3.003906-1.082031-5.871093-2.464843-8.746093-3.832031-1.042969-.5-2.144532-.851562-3.160157-1.398437-3.839843-2-7.546875-4.25-11.09375-6.742188-.714843-.5-1.355469-1.003906-2.21875-1.707031-7.886719-5.769531-14.855469-12.703125-20.667969-20.5625zm174.933594 253.097656c-4.855468 5.640625-11.925781 8.878907-19.371094 8.875h-13.820312c-33.703125.195313-62.429688-24.40625-67.414062-57.738281l-20.652344-150.03125c8.253906 1.9375 16.699218 2.933594 25.175781 2.96875h40.957031l15.882813 95.273438c.6875 4.121093 4.261719 7.136718 8.4375 7.128906.476562 0 .949219-.039063 1.417969-.121094 4.644531-.777344 7.78125-5.175781 7.003906-9.820312l-15.417969-92.460938h19.386719l9.386718 60.835938 14.917969 114.449218c1.144531 7.402344-1 14.9375-5.878906 20.625zm42.308594-153.761719c-4.859375 5.738282-12.003906 9.042969-19.523438 9.035157h-16.042968l-7.875-51.199219h45.636718l3.558594 21.402344c1.226563 7.421875-.875 15.007812-5.746094 20.746094zm54.886719-42.164062c-4.710938 0-8.53125-3.820312-8.53125-8.53125v-204.800781c0-4.714844 3.820312-8.535157 8.53125-8.535157 4.714843 0 8.535156 3.820313 8.535156 8.535157v204.800781c0 4.710938-3.820313 8.53125-8.535156 8.53125zm145.066406 42.15625c-.015625 3.246094-1.871094 6.203125-4.785156 7.625-2.917969 1.425781-6.390625 1.074219-8.960938-.910156l-32.828125-25.242188c-21.605468-16.589844-46.429687-28.496094-72.890625-34.96875v-199.183594c26.457031-6.480468 51.273438-18.394531 72.875-34.988281l32.859375-25.277343c2.578125-1.976563 6.054688-2.320313 8.96875-.882813 2.917969 1.433594 4.761719 4.402344 4.761719 7.652344zm32.742187-128.949219c-4.351562 4.269531-9.761718 7.300781-15.675781 8.78125v-65.84375c11.824219 3.070313 21.105469 12.21875 24.34375 24 3.234375 11.777344-.070312 24.386719-8.667969 33.0625zm0 0"/><path d="m426.667969 59.195312c-4.714844 0-8.535157 3.820313-8.535157 8.53125v221.867188c0 4.714844 3.820313 8.535156 8.535157 8.535156 4.710937 0 8.53125-3.820312 8.53125-8.535156v-221.867188c0-4.710937-3.820313-8.53125-8.53125-8.53125zm0 0"/></svg>